<?xml version="1.0" encoding="UTF-8"?>
<svg id="Layer_1" data-name="Layer 1" xmlns="http://www.w3.org/2000/svg" viewBox="0 0 2617.84 768.24">
  <defs>
    <style>
      .cls-1 {
        fill: #3ba9b8;
      }

      .cls-1, .cls-2, .cls-3 {
        stroke-width: 0px;
      }

      .cls-2 {
        fill: #818286;
      }

      .cls-3 {
        fill: #828286;
      }
    </style>
  </defs>
  <path class="cls-2" d="M79.18,176.67c45.1,0,77.82-32.26,77.82-77.72S124.28,21.52,79.18,21.52h-41.24v155.16h41.24ZM17.04,8c0-2.76,2.21-5.26,4.94-5.26h61.59c53.07,0,96.54,43.3,96.54,96.2s-43.47,96.73-96.54,96.73H21.98c-2.74,0-4.94-2.47-4.94-5.21V8Z"/>
  <path class="cls-2" d="M313.24,130.1c-13.47-30.05-26.67-60.34-40.13-90.4h-2.21l-40.13,90.4h82.47ZM182.64,188.52L266.21,3.05c.84-1.66,2.21-3.05,4.68-3.05h2.76c2.47,0,3.84,1.39,4.66,3.05l83.05,185.47c1.66,3.58-.55,7.15-4.68,7.15h-10.99c-2.47,0-4.13-1.63-4.68-3l-20.33-45.49h-97.62l-20.07,45.49c-.58,1.37-2.21,3-4.68,3h-10.99c-4.13,0-6.34-3.58-4.68-7.15"/>
  <path class="cls-2" d="M424.39,3.86c.55-2.21,2.76-3.86,4.94-3.86h4.42c1.92,0,4.1,1.39,4.66,3.05l54.44,151.84h1.39L547.84,3.05c.55-1.66,2.76-3.05,4.68-3.05h4.39c2.21,0,4.42,1.66,4.97,3.86l35.45,185.21c.84,3.84-.82,6.62-4.94,6.62h-10.99c-2.18,0-4.42-1.94-4.94-3.86l-24.48-141.95h-1.08l-50.62,145.53c-.55,1.66-3.02,3.05-4.66,3.05h-4.97c-1.63,0-4.1-1.39-4.66-3.05l-51.15-145.53h-1.08l-23.93,141.95c-.26,1.92-2.76,3.86-4.94,3.86h-11.02c-4.13,0-5.76-2.78-4.94-6.62L424.39,3.86Z"/>
  <path class="cls-2" d="M719.76,179.14c43.71,0,79.74-35.81,79.74-79.64s-36.03-80.19-79.74-80.19-79.47,36.36-79.47,80.19,35.74,79.64,79.47,79.64M719.76,0c54.99,0,98.99,44.38,98.99,99.49s-44,98.94-98.99,98.94-98.7-43.81-98.7-98.94S664.76,0,719.76,0"/>
  <path class="cls-2" d="M858.77,4.97c0-2.76,2.47-4.97,5.21-4.97h6.89l124,154.89h.55V8c0-2.76,2.21-5.23,5.23-5.23h9.63c2.76,0,5.21,2.47,5.21,5.23v185.49c0,2.76-2.45,4.97-5.21,4.97h-4.94l-126.21-157.94h-.29v149.92c0,2.76-2.18,5.26-5.21,5.26h-9.65c-2.74,0-5.21-2.5-5.21-5.26V4.97Z"/>
  <path class="cls-2" d="M1207.77,101.97c21.19,0,39.6-17.62,39.6-40.23,0-20.95-18.41-38.86-39.6-38.86h-53.33v79.09h53.33ZM1132.71,8c0-2.76,2.21-5.26,5.21-5.26h71.24c32.98,0,59.94,25.92,59.94,58.71,0,25.37-16.78,46.59-40.71,56.24l37.68,69.99c1.92,3.6,0,7.99-4.68,7.99h-14.02c-2.5,0-3.86-1.37-4.39-2.47l-36.56-73.04h-52.54v70.3c0,2.74-2.47,5.21-5.23,5.21h-10.73c-3,0-5.21-2.47-5.21-5.21V8Z"/>
  <path class="cls-2" d="M1308.17,8c0-2.76,2.47-5.26,5.21-5.26h10.47c3,0,5.23,2.5,5.23,5.26v114.93c0,31.42,19.51,55.95,51.7,55.95s52.23-23.98,52.23-55.4V8c0-2.76,2.21-5.26,5.21-5.26h10.47c2.74,0,5.23,2.5,5.23,5.26v116.58c0,41.89-29.72,73.86-73.14,73.86s-72.61-31.97-72.61-73.86V8Z"/>
  <path class="cls-2" d="M1494.93,4.97c0-2.76,2.47-4.97,5.21-4.97h6.89l124.02,154.89h.53V8c0-2.76,2.21-5.23,5.23-5.23h9.63c2.74,0,5.21,2.47,5.21,5.23v185.49c0,2.76-2.47,4.97-5.21,4.97h-4.94l-126.21-157.94h-.29v149.92c0,2.76-2.18,5.26-5.23,5.26h-9.63c-2.74,0-5.21-2.5-5.21-5.26V4.97Z"/>
  <path class="cls-2" d="M1746.15,102.81l-66.25-92.05c-2.21-3.58,0-7.99,4.39-7.99h12.91c1.94,0,3.58,1.37,4.39,2.47l55.54,76.91,55.54-76.91c.84-1.1,2.47-2.47,4.42-2.47h12.91c4.42,0,6.6,4.42,4.42,7.99l-67.11,91.76v87.92c0,2.76-2.47,5.23-5.23,5.23h-10.73c-3,0-5.21-2.47-5.21-5.23v-87.63Z"/>
  <path class="cls-2" d="M1934.96,179.14c43.71,0,79.74-35.81,79.74-79.64s-36.03-80.19-79.74-80.19-79.47,36.36-79.47,80.19,35.74,79.64,79.47,79.64M1934.96,0c54.99,0,98.99,44.38,98.99,99.49s-44,98.94-98.99,98.94-98.7-43.81-98.7-98.94S1879.97,0,1934.96,0"/>
  <path class="cls-2" d="M2073.97,4.97c0-2.76,2.47-4.97,5.21-4.97h6.89l124.02,154.89h.53V8c0-2.76,2.21-5.23,5.23-5.23h9.63c2.74,0,5.21,2.47,5.21,5.23v185.49c0,2.76-2.47,4.97-5.21,4.97h-4.94l-126.21-157.94h-.29v149.92c0,2.76-2.18,5.26-5.23,5.26h-9.63c-2.74,0-5.21-2.5-5.21-5.26V4.97Z"/>
  <path class="cls-1" d="M102.23,281.93c28.61,0,49.28,9.07,68.55,26.4,2.54,2.28,2.54,5.69.26,7.95l-17.26,17.88c-1.99,2.28-4.82,2.28-7.1,0-11.88-10.49-27.75-16.75-43.59-16.75-36.27,0-63.18,30.39-63.18,66.15s27.2,65.58,63.44,65.58c16.99,0,31.44-6.53,43.33-16.18,2.28-1.99,5.38-1.7,7.1,0l17.55,18.17c2.26,1.99,1.7,5.66-.29,7.66-19.25,18.72-43.61,27.53-68.82,27.53-56.65,0-102.23-45.13-102.23-101.89s45.58-102.49,102.23-102.49"/>
  <path class="cls-1" d="M307.39,415.63l-28.3-62.46h-.86l-27.75,62.46h56.91ZM185.05,476.09l88.09-191.04c.84-1.7,2.26-3.12,4.8-3.12h2.83c2.83,0,3.96,1.42,4.8,3.12l87.25,191.04c1.7,3.67-.58,7.39-4.82,7.39h-24.63c-4.27,0-6.24-1.73-8.21-5.69l-13.87-30.65h-84.68l-13.9,30.65c-1.13,2.83-3.67,5.69-8.21,5.69h-24.65c-4.22,0-6.5-3.72-4.8-7.39"/>
  <path class="cls-1" d="M396.81,287.04c0-2.83,2.54-5.11,5.38-5.11h7.08l117.81,125.46h.29v-117.23c0-2.83,2.28-5.4,5.4-5.4h26.04c2.83,0,5.38,2.57,5.38,5.4v191.06c0,2.81-2.54,5.11-5.38,5.11h-6.79l-118.38-130.31h-.29v122.08c0,2.83-2.26,5.38-5.38,5.38h-25.78c-2.83,0-5.38-2.54-5.38-5.38v-191.06Z"/>
  <path class="cls-1" d="M701.48,281.93c28.61,0,49.28,9.07,68.53,26.4,2.57,2.28,2.57,5.69.29,7.95l-17.26,17.88c-1.99,2.28-4.82,2.28-7.1,0-11.88-10.49-27.75-16.75-43.59-16.75-36.27,0-63.18,30.39-63.18,66.15s27.2,65.58,63.44,65.58c16.99,0,31.44-6.53,43.33-16.18,2.28-1.99,5.38-1.7,7.1,0l17.55,18.17c2.28,1.99,1.7,5.66-.29,7.66-19.25,18.72-43.59,27.53-68.82,27.53-56.65,0-102.23-45.13-102.23-101.89s45.58-102.49,102.23-102.49"/>
  <path class="cls-1" d="M803.24,290.16c0-2.83,2.28-5.4,5.38-5.4h115.26c3.12,0,5.4,2.57,5.4,5.4v23.26c0,2.86-2.28,5.42-5.4,5.42h-83.82v46.54h69.94c2.83,0,5.4,2.57,5.4,5.38v23.57c0,3.12-2.57,5.4-5.4,5.4h-69.94v49.69h83.82c3.12,0,5.4,2.54,5.4,5.38v23.28c0,2.86-2.28,5.4-5.4,5.4h-115.26c-3.1,0-5.38-2.54-5.38-5.4v-187.92Z"/>
  <path class="cls-1" d="M1051.28,375.32c15,0,28.04-13.06,28.04-28.95,0-15.05-13.03-27.53-28.04-27.53h-46.18v56.48h46.18ZM968.01,290.16c0-2.83,2.28-5.4,5.38-5.4h81.01c33.96,0,61.74,27.27,61.74,61.04,0,26.12-17.26,47.41-41.91,57.34l38.79,72.1c1.99,3.7,0,8.23-4.8,8.23h-29.74c-2.57,0-3.96-1.42-4.54-2.54l-37.66-75.25h-31.44v72.39c0,2.86-2.54,5.4-5.38,5.4h-26.07c-3.1,0-5.38-2.54-5.38-5.4v-187.92Z"/>
  <path class="cls-1" d="M1302.57,375.32c15,0,28.04-13.06,28.04-28.95,0-15.05-13.03-27.53-28.04-27.53h-46.18v56.48h46.18ZM1219.31,290.16c0-2.83,2.28-5.4,5.38-5.4h81.01c33.99,0,61.74,27.27,61.74,61.04,0,26.12-17.28,47.41-41.91,57.34l38.79,72.1c1.99,3.7,0,8.23-4.8,8.23h-29.74c-2.57,0-3.96-1.42-4.54-2.54l-37.68-75.25h-31.42v72.39c0,2.86-2.54,5.4-5.4,5.4h-26.04c-3.1,0-5.38-2.54-5.38-5.4v-187.92Z"/>
  <path class="cls-1" d="M1405.29,290.16c0-2.83,2.28-5.4,5.38-5.4h115.26c3.12,0,5.38,2.57,5.38,5.4v23.26c0,2.86-2.26,5.42-5.38,5.42h-83.82v46.54h69.94c2.83,0,5.38,2.57,5.38,5.38v23.57c0,3.12-2.54,5.4-5.38,5.4h-69.94v49.69h83.82c3.12,0,5.38,2.54,5.38,5.38v23.28c0,2.86-2.26,5.4-5.38,5.4h-115.26c-3.1,0-5.38-2.54-5.38-5.4v-187.92Z"/>
  <path class="cls-1" d="M1557.72,455.65l10.2-17.59c2.26-3.98,7.06-3.98,9.63-1.99,1.42.86,24.36,17.59,42.75,17.59,14.74,0,25.78-9.65,25.78-21.84,0-14.47-12.17-24.44-35.96-34.06-26.62-10.8-53.24-27.82-53.24-61.33,0-25.28,18.67-54.51,63.7-54.51,28.88,0,50.98,14.76,56.65,19.03,2.83,1.68,3.7,6.5,1.7,9.36l-10.75,16.18c-2.28,3.41-6.53,5.69-9.94,3.41-2.26-1.42-23.79-15.63-39.34-15.63s-24.94,10.8-24.94,19.87c0,13.35,10.49,22.42,33.41,31.8,27.48,11.07,59.19,27.53,59.19,64.16,0,29.21-25.18,56.21-65.12,56.21-35.69,0-56.65-16.75-62.31-22.15-2.54-2.54-3.96-3.98-1.42-8.52"/>
  <path class="cls-1" d="M1721.04,290.16c0-2.83,2.26-5.4,5.38-5.4h115.26c3.12,0,5.4,2.57,5.4,5.4v23.26c0,2.86-2.28,5.42-5.4,5.42h-83.82v46.54h69.94c2.83,0,5.4,2.57,5.4,5.38v23.57c0,3.12-2.57,5.4-5.4,5.4h-69.94v49.69h83.82c3.12,0,5.4,2.54,5.4,5.38v23.28c0,2.86-2.28,5.4-5.4,5.4h-115.26c-3.12,0-5.38-2.54-5.38-5.4v-187.92Z"/>
  <path class="cls-1" d="M1987.94,415.63l-28.3-62.46h-.89l-27.75,62.46h56.94ZM1865.59,476.09l88.09-191.04c.84-1.7,2.26-3.12,4.78-3.12h2.86c2.83,0,3.96,1.42,4.8,3.12l87.25,191.04c1.68,3.67-.58,7.39-4.82,7.39h-24.63c-4.27,0-6.24-1.73-8.21-5.69l-13.9-30.65h-84.66l-13.9,30.65c-1.13,2.83-3.67,5.69-8.21,5.69h-24.63c-4.25,0-6.53-3.72-4.82-7.39"/>
  <path class="cls-1" d="M2160.62,375.32c15,0,28.04-13.06,28.04-28.95,0-15.05-13.03-27.53-28.04-27.53h-46.18v56.48h46.18ZM2077.35,290.16c0-2.83,2.26-5.4,5.38-5.4h81.01c33.99,0,61.74,27.27,61.74,61.04,0,26.12-17.28,47.41-41.91,57.34l38.79,72.1c1.97,3.7,0,8.23-4.82,8.23h-29.74c-2.54,0-3.94-1.42-4.51-2.54l-37.68-75.25h-31.44v72.39c0,2.86-2.52,5.4-5.38,5.4h-26.04c-3.12,0-5.38-2.54-5.38-5.4v-187.92Z"/>
  <path class="cls-1" d="M2349.83,281.93c28.61,0,49.28,9.07,68.55,26.4,2.54,2.28,2.54,5.69.26,7.95l-17.26,17.88c-1.99,2.28-4.82,2.28-7.11,0-11.88-10.49-27.75-16.75-43.59-16.75-36.27,0-63.18,30.39-63.18,66.15s27.2,65.58,63.44,65.58c16.99,0,31.44-6.53,43.33-16.18,2.28-1.99,5.38-1.7,7.11,0l17.55,18.17c2.26,1.99,1.7,5.66-.29,7.66-19.25,18.72-43.61,27.53-68.82,27.53-56.65,0-102.23-45.13-102.23-101.89s45.58-102.49,102.23-102.49"/>
  <path class="cls-1" d="M2451.6,290.16c0-2.83,2.54-5.4,5.38-5.4h26.33c3.12,0,5.4,2.57,5.4,5.4v75.23h92.32v-75.23c0-2.83,2.28-5.4,5.4-5.4h26.04c2.83,0,5.38,2.57,5.38,5.4v187.92c0,2.86-2.54,5.4-5.38,5.4h-26.04c-3.12,0-5.4-2.54-5.4-5.4v-78.35h-92.32v78.35c0,2.86-2.28,5.4-5.4,5.4h-26.33c-2.83,0-5.38-2.54-5.38-5.4v-187.92Z"/>
  <path class="cls-2" d="M17.04,577.8c0-2.76,2.21-5.23,5.21-5.23h108.35c3.02,0,5.23,2.47,5.23,5.23v7.99c0,2.74-2.21,5.23-5.23,5.23H38.21v75.51h78.92c2.74,0,5.21,2.47,5.21,5.23v7.99c0,2.76-2.47,5.23-5.21,5.23H38.21v75.25c0,2.76-2.47,5.23-5.23,5.23h-10.73c-3,0-5.21-2.47-5.21-5.23v-182.45Z"/>
  <path class="cls-2" d="M252.76,748.94c43.71,0,79.74-35.81,79.74-79.64s-36.03-80.22-79.74-80.22-79.47,36.39-79.47,80.22,35.74,79.64,79.47,79.64M252.76,569.81c54.99,0,98.99,44.38,98.99,99.49s-44,98.94-98.99,98.94-98.7-43.83-98.7-98.94,43.71-99.49,98.7-99.49"/>
  <path class="cls-2" d="M389.33,577.8c0-2.76,2.47-5.23,5.21-5.23h10.47c3.02,0,5.23,2.47,5.23,5.23v114.93c0,31.42,19.51,55.95,51.68,55.95s52.25-23.98,52.25-55.4v-115.48c0-2.76,2.18-5.23,5.21-5.23h10.47c2.74,0,5.21,2.47,5.21,5.23v116.58c0,41.89-29.69,73.86-73.14,73.86s-72.58-31.97-72.58-73.86v-116.58Z"/>
  <path class="cls-2" d="M576.08,574.76c0-2.76,2.47-4.94,5.21-4.94h6.89l124.02,154.89h.53v-146.9c0-2.76,2.21-5.23,5.23-5.23h9.63c2.76,0,5.23,2.47,5.23,5.23v185.47c0,2.76-2.47,4.97-5.23,4.97h-4.94l-126.21-157.92h-.29v149.92c0,2.76-2.18,5.23-5.23,5.23h-9.63c-2.74,0-5.21-2.47-5.21-5.23v-185.49Z"/>
  <path class="cls-2" d="M843.42,746.47c45.1,0,77.82-32.26,77.82-77.72s-32.72-77.46-77.82-77.46h-41.24v155.18h41.24ZM781.27,577.8c0-2.76,2.21-5.23,4.94-5.23h61.59c53.07,0,96.52,43.28,96.52,96.18s-43.45,96.73-96.52,96.73h-61.59c-2.74,0-4.94-2.47-4.94-5.23v-182.45Z"/>
  <path class="cls-2" d="M1087.37,699.89c-13.47-30.05-26.67-60.37-40.13-90.4h-2.18l-40.16,90.4h82.47ZM956.77,758.32l83.58-185.47c.84-1.66,2.21-3.05,4.7-3.05h2.74c2.47,0,3.84,1.39,4.68,3.05l83.03,185.47c1.66,3.58-.55,7.15-4.68,7.15h-10.97c-2.5,0-4.13-1.63-4.7-3.02l-20.35-45.46h-97.6l-20.07,45.46c-.55,1.39-2.18,3.02-4.68,3.02h-10.99c-4.13,0-6.34-3.58-4.68-7.15"/>
  <path class="cls-2" d="M1177.43,591.02h-47.84c-3.02,0-5.23-2.5-5.23-5.23v-7.99c0-2.76,2.21-5.23,5.23-5.23h116.58c3.02,0,5.21,2.47,5.21,5.23v7.99c0,2.74-2.18,5.23-5.21,5.23h-47.84v169.22c0,2.76-2.5,5.23-5.23,5.23h-10.47c-2.74,0-5.21-2.47-5.21-5.23v-169.22Z"/>
  <path class="cls-2" d="M1285.25,577.8c0-2.76,2.47-5.23,5.21-5.23h11.02c2.74,0,5.23,2.47,5.23,5.23v182.45c0,2.76-2.5,5.23-5.23,5.23h-11.02c-2.74,0-5.21-2.47-5.21-5.23v-182.45Z"/>
  <path class="cls-2" d="M1444.85,748.94c43.71,0,79.71-35.81,79.71-79.64s-36-80.22-79.71-80.22-79.47,36.39-79.47,80.22,35.74,79.64,79.47,79.64M1444.85,569.81c54.99,0,98.99,44.38,98.99,99.49s-44,98.94-98.99,98.94-98.7-43.83-98.7-98.94,43.71-99.49,98.7-99.49"/>
  <path class="cls-3" d="M1583.85,574.76c0-2.76,2.47-4.94,5.21-4.94h6.89l124.02,154.89h.53v-146.9c0-2.76,2.21-5.23,5.23-5.23h9.63c2.74,0,5.23,2.47,5.23,5.23v185.47c0,2.76-2.5,4.97-5.23,4.97h-4.94l-126.21-157.92h-.29v149.92c0,2.76-2.18,5.23-5.21,5.23h-9.65c-2.74,0-5.21-2.47-5.21-5.23v-185.49Z"/>
</svg>